{
  "accessors": [
    {
      "bufferView": 1,
      "componentType": 5126,
      "count": 65532,
      "max": [
        96.51921081542969,
        103.11663055419922,
        126.65191650390625
      ],
      "min": [
        -95.28823852539063,
        -78.09281158447266,
        -100.08391571044922
      ],
      "type": "VEC3"
    },
    {
      "bufferView": 1,
      "byteOffset": 786384,
      "componentType": 5126,
      "count": 65532,
      "max": [
        0.9999971389770508,
        0.9999704360961914,
        0.9999686479568481
      ],
      "min": [
        -0.9998342990875244,
        -0.9999879002571106,
        -0.9873698949813843
      ],
      "type": "VEC3"
    },
    {
      "bufferView": 0,
      "componentType": 5125,
      "count": 359163,
      "type": "SCALAR"
    },
    {
      "bufferView": 1,
      "byteOffset": 1572768,
      "componentType": 5126,
      "count": 65532,
      "max": [
        96.1123275756836,
        102.54658508300781,
        130.58946228027344
      ],
      "min": [
        -95.93729400634766,
        -78.0443115234375,
        -122.22705841064453
      ],
      "type": "VEC3"
    },
    {
      "bufferView": 1,
      "byteOffset": 2359152,
      "componentType": 5126,
      "count": 65532,
      "max": [
        0.9999897480010986,
        0.9999959468841553,
        0.9999997019767761
      ],
      "min": [
        -0.9999796748161316,
        -0.9999108910560608,
        -0.9909467697143555
      ],
      "type": "VEC3"
    },
    {
      "bufferView": 0,
      "byteOffset": 1436652,
      "componentType": 5125,
      "count": 361323,
      "type": "SCALAR"
    },
    {
      "bufferView": 1,
      "byteOffset": 3145536,
      "componentType": 5126,
      "count": 65532,
      "max": [
        96.1926498413086,
        103.1523208618164,
        130.55709838867188
      ],
      "min": [
        -96.50383758544922,
        -78.0927505493164,
        -122.31330108642578
      ],
      "type": "VEC3"
    },
    {
      "bufferView": 1,
      "byteOffset": 3931920,
      "componentType": 5126,
      "count": 65532,
      "max": [
        0.9998545050621033,
        0.9991496801376343,
        0.9999966025352478
      ],
      "min": [
        -0.9999911785125732,
        -0.9999983310699463,
        -0.9984377026557922
      ],
      "type": "VEC3"
    },
    {
      "bufferView": 0,
      "byteOffset": 2881944,
      "componentType": 5125,
      "count": 353472,
      "type": "SCALAR"
    },
    {
      "bufferView": 1,
      "byteOffset": 4718304,
      "componentType": 5126,
      "count": 21370,
      "max": [
        96.32196044921875,
        101.9762191772461,
        130.5710906982422
      ],
      "min": [
        -96.51847076416016,
        -78.0927505493164,
        -108.60186004638672
      ],
      "type": "VEC3"
    },
    {
      "bufferView": 1,
      "byteOffset": 4974744,
      "componentType": 5126,
      "count": 21370,
      "max": [
        0.9985142946243286,
        0.9999700784683228,
        0.9999997019767761
      ],
      "min": [
        -0.9999911785125732,
        -0.9999470114707947,
        -0.9902446269989014
      ],
      "type": "VEC3"
    },
    {
      "bufferView": 0,
      "byteOffset": 4295832,
      "componentType": 5125,
      "count": 97242,
      "type": "SCALAR"
    }
  ],
  "asset": {
    "extras": {
      "author": "nomercy.rms (https://sketchfab.com/nomercy.rms)",
      "license": "CC-BY-4.0 (http://creativecommons.org/licenses/by/4.0/)",
      "source": "https://sketchfab.com/3d-models/pig-money-box-76c7881a28854ca898c06b210642456e",
      "title": "Pig Money Box"
    },
    "generator": "Sketchfab-12.65.0",
    "version": "2.0"
  },
  "bufferViews": [
    {
      "buffer": 0,
      "byteLength": 4684800,
      "name": "floatBufferViews",
      "target": 34963
    },
    {
      "buffer": 0,
      "byteLength": 5231184,
      "byteOffset": 4684800,
      "byteStride": 12,
      "name": "floatBufferViews",
      "target": 34962
    }
  ],
  "buffers": [
    {
      "byteLength": 9915984,
      "uri": "scene.bin"
    }
  ],
  "extensionsRequired": [
    "KHR_materials_pbrSpecularGlossiness"
  ],
  "extensionsUsed": [
    "KHR_materials_pbrSpecularGlossiness"
  ],
  "materials": [
    {
      "doubleSided": true,
      "extensions": {
        "KHR_materials_pbrSpecularGlossiness": {
          "diffuseFactor": [
            0.8742798469362408,
            0.18841572285622943,
            0.5360682519245993,
            1.0
          ],
          "glossinessFactor": 0.8460416793823242,
          "specularFactor": [
            0.03979167938232422,
            0.03979167938232422,
            0.03979167938232422
          ]
        }
      },
      "name": "09_-_Default"
    }
  ],
  "meshes": [
    {
      "name": "sphere-retopo 1_09 - Default_0",
      "primitives": [
        {
          "attributes": {
            "NORMAL": 1,
            "POSITION": 0
          },
          "indices": 2,
          "material": 0,
          "mode": 4
        }
      ]
    },
    {
      "name": "sphere-retopo 1_09 - Default_0",
      "primitives": [
        {
          "attributes": {
            "NORMAL": 4,
            "POSITION": 3
          },
          "indices": 5,
          "material": 0,
          "mode": 4
        }
      ]
    },
    {
      "name": "sphere-retopo 1_09 - Default_0",
      "primitives": [
        {
          "attributes": {
            "NORMAL": 7,
            "POSITION": 6
          },
          "indices": 8,
          "material": 0,
          "mode": 4
        }
      ]
    },
    {
      "name": "sphere-retopo 1_09 - Default_0",
      "primitives": [
        {
          "attributes": {
            "NORMAL": 10,
            "POSITION": 9
          },
          "indices": 11,
          "material": 0,
          "mode": 4
        }
      ]
    }
  ],
  "nodes": [
    {
      "children": [
        1
      ],
      "matrix": [
        0.00018028523481916636,
        0.0,
        0.0,
        0.0,
        0.0,
        4.0031363739238293e-20,
        -0.00018028523481916636,
        0.0,
        0.0,
        0.00018028523481916636,
        4.0031363739238293e-20,
        0.0,
        0.0,
        0.0,
        0.0,
        1.0
      ],
      "name": "Sketchfab_model"
    },
    {
      "children": [
        2
      ],
      "matrix": [
        1.0,
        0.0,
        0.0,
        0.0,
        0.0,
        0.0,
        1.0,
        0.0,
        0.0,
        -1.0,
        0.0,
        0.0,
        0.0,
        0.0,
        0.0,
        1.0
      ],
      "name": "f28b2c8e8044415e9341037a9925fabe.fbx"
    },
    {
      "children": [
        3
      ],
      "name": "RootNode"
    },
    {
      "children": [
        4,
        5,
        6,
        7
      ],
      "matrix": [
        10.0,
        0.0,
        0.0,
        0.0,
        0.0,
        9.999533958844221,
        -0.09654328522078535,
        0.0,
        0.0,
        0.09654328522078535,
        9.999533958844221,
        0.0,
        5.686434292329068e-07,
        786.3118896484375,
        -13.009011268615723,
        1.0
      ],
      "name": "sphere-retopo 1"
    },
    {
      "mesh": 0,
      "name": "sphere-retopo 1_09 - Default_0"
    },
    {
      "mesh": 1,
      "name": "sphere-retopo 1_09 - Default_0"
    },
    {
      "mesh": 2,
      "name": "sphere-retopo 1_09 - Default_0"
    },
    {
      "mesh": 3,
      "name": "sphere-retopo 1_09 - Default_0"
    }
  ],
  "scene": 0,
  "scenes": [
    {
      "name": "Sketchfab_Scene",
      "nodes": [
        0
      ]
    }
  ]
}
