{
  "accessors": [
    {
      "bufferView": 2,
      "componentType": 5126,
      "count": 15130,
      "max": [
        77.12133026123047,
        77.12133026123047,
        150.0
      ],
      "min": [
        -77.12133026123047,
        -77.12133026123047,
        0.0
      ],
      "type": "VEC3"
    },
    {
      "bufferView": 2,
      "byteOffset": 181560,
      "componentType": 5126,
      "count": 15130,
      "max": [
        1.0,
        1.0,
        1.0
      ],
      "min": [
        -1.0,
        -1.0,
        -1.0
      ],
      "type": "VEC3"
    },
    {
      "bufferView": 1,
      "componentType": 5126,
      "count": 15130,
      "max": [
        3.9987106323242188,
        3.9987106323242188
      ],
      "min": [
        0.00128936767578125,
        0.00128936767578125
      ],
      "type": "VEC2"
    },
    {
      "bufferView": 0,
      "componentType": 5125,
      "count": 86016,
      "type": "SCALAR"
    },
    {
      "bufferView": 2,
      "byteOffset": 363120,
      "componentType": 5126,
      "count": 45454,
      "max": [
        80.26512145996094,
        113.91900634765625,
        166.86192321777344
      ],
      "min": [
        -80.26509857177734,
        -113.91900634765625,
        -0.10284576565027237
      ],
      "type": "VEC3"
    },
    {
      "bufferView": 2,
      "byteOffset": 908568,
      "componentType": 5126,
      "count": 45454,
      "max": [
        1.0,
        1.0,
        1.0
      ],
      "min": [
        -1.0,
        -1.0,
        -1.0
      ],
      "type": "VEC3"
    },
    {
      "bufferView": 1,
      "byteOffset": 121040,
      "componentType": 5126,
      "count": 45454,
      "max": [
        93.0,
        150.0
      ],
      "min": [
        -149.0,
        -113.91900634765625
      ],
      "type": "VEC2"
    },
    {
      "bufferView": 0,
      "byteOffset": 344064,
      "componentType": 5125,
      "count": 264300,
      "type": "SCALAR"
    }
  ],
  "asset": {
    "extras": {
      "author": "Neo_minigan (https://sketchfab.com/neominigan)",
      "license": "CC-BY-4.0 (http://creativecommons.org/licenses/by/4.0/)",
      "source": "https://sketchfab.com/3d-models/gift-d58718e65dff4ba2be87522d65ac5373",
      "title": "Gift"
    },
    "generator": "Sketchfab-12.67.0",
    "version": "2.0"
  },
  "bufferViews": [
    {
      "buffer": 0,
      "byteLength": 1401264,
      "name": "floatBufferViews",
      "target": 34963
    },
    {
      "buffer": 0,
      "byteLength": 484672,
      "byteOffset": 1401264,
      "byteStride": 8,
      "name": "floatBufferViews",
      "target": 34962
    },
    {
      "buffer": 0,
      "byteLength": 1454016,
      "byteOffset": 1885936,
      "byteStride": 12,
      "name": "floatBufferViews",
      "target": 34962
    }
  ],
  "buffers": [
    {
      "byteLength": 3339952,
      "uri": "scene.bin"
    }
  ],
  "materials": [
    {
      "doubleSided": true,
      "name": "giftbox",
      "pbrMetallicRoughness": {
        "baseColorFactor": [
          0.36926983470546315,
          0.0,
          0.0,
          1.0
        ],
        "metallicFactor": 0.0,
        "roughnessFactor": 0.1
      }
    },
    {
      "doubleSided": true,
      "name": "giftbox_tape",
      "pbrMetallicRoughness": {
        "baseColorFactor": [
          0.783914465286133,
          0.0,
          0.0,
          1.0
        ],
        "metallicFactor": 0.0,
        "roughnessFactor": 0.03
      }
    }
  ],
  "meshes": [
    {
      "name": "Box001_giftbox_0",
      "primitives": [
        {
          "attributes": {
            "NORMAL": 1,
            "POSITION": 0,
            "TEXCOORD_0": 2
          },
          "indices": 3,
          "material": 0,
          "mode": 4
        }
      ]
    },
    {
      "name": "Box001_giftbox tape_0",
      "primitives": [
        {
          "attributes": {
            "NORMAL": 5,
            "POSITION": 4,
            "TEXCOORD_0": 6
          },
          "indices": 7,
          "material": 1,
          "mode": 4
        }
      ]
    }
  ],
  "nodes": [
    {
      "children": [
        1
      ],
      "matrix": [
        1.0,
        0.0,
        0.0,
        0.0,
        0.0,
        2.220446049250313e-16,
        -1.0,
        0.0,
        0.0,
        1.0,
        2.220446049250313e-16,
        0.0,
        0.0,
        0.0,
        0.0,
        1.0
      ],
      "name": "Sketchfab_model"
    },
    {
      "children": [
        2
      ],
      "matrix": [
        1.0,
        0.0,
        0.0,
        0.0,
        0.0,
        0.0,
        1.0,
        0.0,
        0.0,
        -1.0,
        0.0,
        0.0,
        0.0,
        0.0,
        0.0,
        1.0
      ],
      "name": "0ee140c6240645f49c5eceeefbf0a567.fbx"
    },
    {
      "children": [
        3
      ],
      "name": "RootNode"
    },
    {
      "children": [
        4,
        5
      ],
      "matrix": [
        1.0,
        0.0,
        0.0,
        0.0,
        0.0,
        2.220446049250313e-16,
        -1.0,
        0.0,
        0.0,
        1.0,
        2.220446049250313e-16,
        0.0,
        -1.1444091796875e-05,
        5.773681640625,
        0.0,
        1.0
      ],
      "name": "Box001"
    },
    {
      "mesh": 0,
      "name": "Box001_giftbox_0"
    },
    {
      "mesh": 1,
      "name": "Box001_giftbox tape_0"
    }
  ],
  "scene": 0,
  "scenes": [
    {
      "name": "Sketchfab_Scene",
      "nodes": [
        0
      ]
    }
  ]
}
